<?xml version="1.0" encoding="UTF-8"?>
<svg xmlns="http://www.w3.org/2000/svg" xmlns:xlink="http://www.w3.org/1999/xlink" width="48pt" height="39pt" viewBox="0 0 48 39" version="1.1">
<g id="surface1">
<path style=" stroke:none;fill-rule:evenodd;fill:rgb(0%,0%,0%);fill-opacity:1;" d="M 24.855469 0.0078125 C 24.765625 0.0195312 24.722656 0.175781 24.632812 0.222656 L 24.605469 0.183594 C 24.496094 0.304688 24.371094 0.386719 24.230469 0.449219 C 24.167969 0.496094 24.070312 0.511719 24.085938 0.636719 C 24.15625 0.65625 24.183594 0.691406 24.117188 0.761719 C 24.058594 0.789062 24.007812 0.820312 23.9375 0.839844 C 23.917969 0.746094 23.902344 0.648438 23.898438 0.550781 C 23.890625 0.539062 23.875 0.527344 23.859375 0.519531 L 23.859375 0.488281 C 23.886719 0.476562 23.925781 0.460938 23.925781 0.425781 C 23.925781 0.390625 23.878906 0.375 23.847656 0.382812 C 23.847656 0.394531 23.839844 0.394531 23.828125 0.394531 L 23.828125 0.382812 C 23.839844 0.375 23.84375 0.367188 23.84375 0.355469 C 23.84375 0.339844 23.832031 0.328125 23.816406 0.324219 L 23.816406 0.289062 L 23.835938 0.289062 L 23.835938 0.277344 L 23.816406 0.277344 L 23.816406 0.261719 L 23.804688 0.261719 L 23.804688 0.277344 L 23.785156 0.277344 L 23.785156 0.289062 L 23.804688 0.289062 L 23.804688 0.320312 C 23.792969 0.320312 23.777344 0.335938 23.777344 0.351562 C 23.777344 0.363281 23.789062 0.371094 23.792969 0.378906 L 23.792969 0.390625 C 23.785156 0.390625 23.773438 0.390625 23.765625 0.375 C 23.714844 0.375 23.707031 0.410156 23.707031 0.429688 C 23.707031 0.449219 23.730469 0.472656 23.753906 0.488281 L 23.753906 0.519531 C 23.726562 0.53125 23.699219 0.542969 23.679688 0.566406 C 23.671875 0.597656 23.679688 0.628906 23.695312 0.660156 C 23.695312 0.652344 23.703125 0.640625 23.707031 0.632812 C 23.722656 0.621094 23.746094 0.617188 23.765625 0.644531 C 23.765625 0.726562 23.792969 0.816406 23.730469 0.875 C 23.648438 0.847656 23.570312 0.824219 23.527344 0.738281 C 23.628906 0.644531 23.527344 0.609375 23.492188 0.554688 C 23.28125 0.375 23.042969 0.339844 22.863281 0.160156 L 22.851562 0.183594 C 22.796875 0.140625 22.703125 0.046875 22.675781 0.0664062 C 22.648438 0.0859375 22.703125 0.15625 22.734375 0.203125 C 22.65625 0.285156 22.761719 0.308594 22.789062 0.355469 C 22.734375 0.414062 22.804688 0.457031 22.84375 0.503906 C 22.828125 0.550781 22.816406 0.597656 22.925781 0.632812 C 22.882812 0.699219 22.945312 0.722656 23 0.75 C 22.980469 0.808594 23.007812 0.828125 23.050781 0.839844 C 23.066406 0.871094 23.066406 0.917969 23.117188 0.898438 C 23.128906 0.933594 23.144531 0.960938 23.195312 0.945312 C 23.203125 1.011719 23.238281 1.019531 23.296875 0.988281 C 23.304688 1.027344 23.316406 1.054688 23.34375 1.046875 C 23.34375 1.089844 23.28125 1.171875 23.363281 1.167969 C 23.371094 1.214844 23.363281 1.285156 23.421875 1.238281 C 23.441406 1.269531 23.457031 1.328125 23.503906 1.261719 C 23.523438 1.285156 23.539062 1.335938 23.566406 1.273438 C 23.589844 1.289062 23.582031 1.363281 23.648438 1.289062 C 23.664062 1.289062 23.664062 1.382812 23.660156 1.386719 L 23.6875 1.378906 L 23.6875 1.429688 C 23.574219 1.445312 23.570312 1.511719 23.578125 1.585938 C 23.582031 1.589844 23.578125 1.589844 23.578125 1.585938 C 23.398438 1.699219 23.277344 1.898438 23.277344 2.128906 C 23.277344 2.464844 23.539062 2.742188 23.871094 2.757812 L 23.871094 2.816406 C 23.808594 2.835938 23.796875 2.84375 23.792969 2.875 C 23.792969 2.90625 23.820312 2.914062 23.847656 2.933594 L 23.863281 2.996094 L 23.878906 3.1875 C 23.839844 3.214844 23.847656 3.246094 23.890625 3.277344 L 23.90625 3.800781 L 23.765625 3.910156 C 23.71875 3.96875 23.671875 4.027344 23.617188 4.066406 C 23.394531 3.890625 23.253906 4.042969 23.191406 4.140625 C 23.125 4.246094 23.109375 4.738281 23.132812 5.042969 C 23.207031 5.519531 23.242188 6.003906 23.273438 6.488281 C 23.144531 6.574219 22.757812 6.785156 22.636719 6.832031 L 22.636719 6.734375 L 22.714844 6.527344 L 22.703125 6.375 C 22.625 6.3125 22.660156 6.300781 22.691406 6.285156 C 22.738281 6.1875 22.679688 6.089844 22.613281 5.996094 L 22.546875 5.949219 C 22.4375 5.910156 22.3125 5.804688 22.246094 6.035156 C 22.234375 5.988281 22.175781 5.964844 22.121094 5.9375 C 22.113281 5.996094 22.082031 6.058594 22.160156 6.105469 L 22.152344 6.171875 C 22.054688 6.273438 22.074219 6.335938 22.078125 6.40625 C 22.078125 6.496094 22.085938 6.550781 22.085938 6.609375 C 22.058594 6.769531 22.03125 6.925781 22.007812 7.085938 C 21.445312 7.269531 20.464844 7.386719 20.273438 7.300781 L 20.285156 7.269531 L 20.246094 7.253906 C 20.144531 6.96875 20.09375 6.671875 19.929688 6.390625 C 19.914062 6.300781 19.84375 6.214844 19.789062 6.125 C 19.652344 6.039062 19.53125 5.871094 19.378906 5.871094 C 19.308594 5.871094 19.226562 5.90625 19.136719 6.015625 L 19.054688 6.054688 C 18.96875 6.023438 18.960938 6.046875 18.9375 6.066406 L 18.878906 6.050781 L 18.878906 6.09375 C 18.957031 6.09375 18.972656 6.144531 19.003906 6.183594 C 19.019531 6.238281 19.015625 6.285156 19.003906 6.332031 C 18.957031 6.382812 18.921875 6.429688 18.925781 6.445312 C 18.9375 6.476562 18.941406 6.507812 18.9375 6.539062 L 19.007812 6.628906 L 19.007812 6.777344 C 19.039062 6.898438 19.066406 7.019531 18.964844 7.097656 C 18.984375 7.140625 19.003906 7.1875 19.035156 7.25 C 19.058594 7.273438 19.0625 7.308594 19.074219 7.339844 C 19.121094 7.40625 19.175781 7.386719 19.230469 7.359375 C 19.230469 7.359375 19.421875 7.421875 19.433594 7.421875 C 19.445312 7.421875 19.425781 7.5 19.425781 7.5 L 19.433594 7.5 L 19.425781 7.597656 C 19.347656 7.679688 19.28125 7.765625 19.253906 7.871094 C 19.195312 7.957031 19.203125 8.015625 19.207031 8.078125 L 19.261719 8.339844 C 19.304688 8.398438 19.296875 8.523438 19.304688 8.59375 C 19.367188 8.808594 19.21875 8.835938 19.113281 8.902344 L 19.082031 9.078125 C 19.132812 9.269531 19.128906 9.5 19.144531 9.71875 C 19.160156 9.804688 19.171875 9.894531 19.144531 9.992188 C 19.203125 10.207031 19.390625 10.304688 19.457031 10.152344 C 19.527344 10.003906 19.414062 9.90625 19.367188 9.8125 C 19.324219 9.796875 19.332031 9.738281 19.335938 9.695312 C 19.28125 9.382812 19.289062 9.234375 19.355469 9.171875 C 19.371094 9.136719 19.375 9.09375 19.371094 9.050781 C 19.460938 9.074219 19.507812 8.949219 19.554688 8.945312 C 19.605469 8.933594 19.621094 8.988281 19.664062 8.980469 C 19.761719 8.9375 19.871094 9.03125 19.964844 8.949219 C 19.9375 8.90625 19.875 8.859375 19.890625 8.820312 L 20.058594 8.84375 C 20.089844 8.96875 20.15625 9.054688 20.21875 9.148438 C 20.21875 9.148438 20.242188 9.457031 20.230469 9.46875 C 20.15625 9.535156 20.242188 9.832031 20.242188 9.855469 C 20.269531 10.019531 20.242188 10.183594 20.222656 10.347656 L 20.230469 10.5 C 20.199219 10.53125 20.167969 10.554688 20.136719 10.578125 C 20.128906 10.628906 20.121094 10.671875 20.109375 10.71875 L 18.269531 10.71875 L 18.269531 10.878906 L 17.703125 10.878906 L 17.703125 11.273438 L 17.3125 11.273438 L 17.3125 11.667969 L 1.839844 11.667969 L 2.753906 12.859375 L 2.753906 14.835938 L 2.363281 14.835938 L 2.363281 15.234375 L 0.785156 15.234375 L 0 15.628906 L 0.785156 16.027344 L 0.785156 16.421875 L 2.363281 17.609375 L 2.363281 19.984375 L 1.574219 19.984375 L 2.363281 21.175781 L 2.363281 38.992188 L 5.507812 38.992188 L 5.507812 37.804688 L 5.117188 37.40625 L 5.117188 20.378906 L 5.507812 19.984375 L 9.046875 19.984375 L 9.445312 20.378906 L 9.445312 37.40625 L 9.046875 37.804688 L 9.070312 38.992188 L 12.589844 38.992188 L 12.589844 37.804688 L 12.195312 37.40625 L 12.195312 20.378906 L 12.589844 19.984375 L 16.917969 19.984375 L 17.3125 20.378906 L 17.3125 37.40625 L 16.917969 37.804688 L 16.917969 38.992188 L 20.460938 38.992188 L 20.460938 37.804688 L 20.066406 37.40625 L 20.066406 20.378906 L 20.460938 19.984375 L 27.539062 19.984375 L 27.933594 20.378906 L 27.933594 37.40625 L 27.539062 37.804688 L 27.539062 38.992188 L 31.082031 38.992188 L 31.082031 37.804688 L 30.691406 37.40625 L 30.691406 20.378906 L 31.082031 19.984375 L 35.40625 19.984375 L 35.804688 20.378906 L 35.804688 37.40625 L 35.40625 37.804688 L 35.40625 38.992188 L 38.949219 38.992188 L 38.949219 37.804688 L 38.554688 37.40625 L 38.554688 20.378906 L 38.949219 19.984375 L 42.488281 19.984375 L 42.886719 20.378906 L 42.886719 37.40625 L 42.488281 37.804688 L 42.488281 38.992188 L 45.636719 38.992188 L 45.636719 21.175781 L 46.421875 19.984375 L 45.636719 19.984375 L 45.636719 17.609375 L 47.210938 16.421875 L 47.210938 16.027344 L 48 15.628906 L 47.210938 15.234375 L 45.636719 15.234375 L 45.636719 14.835938 L 45.242188 14.835938 L 45.242188 12.859375 L 46.140625 11.667969 L 30.6875 11.667969 L 30.6875 11.273438 L 30.292969 11.273438 L 30.292969 10.878906 L 29.539062 10.878906 L 29.539062 10.71875 L 27.03125 10.71875 L 27.019531 8.847656 L 27.070312 8.847656 C 27.078125 8.933594 27.101562 9.015625 27.152344 9.097656 C 27.160156 9.265625 27.183594 9.429688 27.171875 9.601562 L 27.121094 9.734375 L 27.191406 9.910156 C 27.175781 9.957031 27.15625 9.988281 27.128906 10.011719 L 27.167969 10.28125 C 27.21875 10.304688 27.277344 10.3125 27.308594 10.378906 L 27.285156 10.554688 C 27.351562 10.679688 27.457031 10.710938 27.59375 10.675781 C 27.59375 10.597656 27.585938 10.5625 27.605469 10.449219 L 27.550781 10.367188 L 27.5625 10.253906 C 27.617188 10.214844 27.664062 10.167969 27.644531 10.058594 C 27.644531 9.980469 27.621094 9.910156 27.585938 9.839844 C 27.566406 9.769531 27.570312 9.703125 27.570312 9.632812 C 27.632812 9.425781 27.664062 9.238281 27.695312 9.054688 C 27.742188 9.015625 27.785156 9.042969 27.828125 9.0625 C 27.828125 9.230469 27.96875 9.445312 27.796875 9.550781 L 27.734375 9.726562 C 27.808594 10 27.75 10.269531 27.667969 10.539062 C 27.679688 10.605469 27.679688 10.6875 27.71875 10.714844 L 28.152344 10.714844 L 28.140625 10.632812 L 28.027344 10.511719 C 28.027344 10.40625 28.027344 10.300781 28.046875 10.191406 C 28.023438 9.882812 28.070312 9.742188 28.113281 9.59375 C 28.28125 9.433594 28.269531 9.386719 28.304688 9.308594 C 28.398438 9.242188 28.402344 9.125 28.421875 9.015625 L 28.589844 8.921875 C 28.648438 8.886719 28.511719 9.089844 28.554688 9.121094 C 28.597656 9.152344 28.617188 9.054688 28.660156 9.039062 C 28.765625 9.050781 28.851562 9.089844 28.933594 9.132812 L 28.933594 9.507812 L 28.835938 9.691406 L 28.835938 9.84375 C 28.605469 10.015625 28.667969 10.242188 28.78125 10.257812 C 28.898438 10.269531 28.96875 10.253906 29.011719 10.003906 L 28.984375 9.902344 C 29.023438 9.871094 29.046875 9.816406 29.066406 9.761719 C 29.085938 9.578125 29.066406 9.386719 29.167969 9.21875 L 29.179688 9.019531 C 29.089844 8.933594 29.0625 8.8125 29.023438 8.699219 C 29.046875 8.625 29.046875 8.460938 29.046875 8.460938 C 29.070312 8.445312 29.105469 8.363281 29.09375 8.246094 C 29.117188 8.199219 29.148438 8.152344 29.09375 8.082031 C 29.105469 7.992188 29.050781 7.910156 29 7.828125 C 28.960938 7.785156 28.953125 7.714844 28.941406 7.644531 L 28.921875 7.476562 C 28.972656 7.40625 29.007812 7.335938 29.023438 7.269531 C 29.066406 7.257812 29.105469 7.226562 29.136719 7.144531 C 29.164062 7.113281 29.195312 7.082031 29.222656 7.027344 C 29.210938 7 29.179688 6.992188 29.195312 6.917969 C 29.203125 6.804688 29.195312 6.6875 29.226562 6.582031 L 29.28125 6.476562 C 29.332031 6.421875 29.335938 6.363281 29.261719 6.292969 L 29.269531 6.1875 L 29.3125 6.101562 C 29.359375 6.03125 29.445312 5.976562 29.398438 5.863281 C 29.34375 5.933594 29.289062 5.941406 29.234375 5.96875 C 29.199219 5.929688 29.183594 5.875 29.09375 5.878906 C 29.132812 5.8125 29.128906 5.785156 29.105469 5.785156 C 29.105469 5.785156 29.105469 5.785156 29.097656 5.785156 C 29.074219 5.785156 29.042969 5.804688 29.003906 5.824219 C 28.914062 5.839844 28.816406 5.824219 28.746094 5.902344 C 28.65625 5.917969 28.574219 5.972656 28.527344 6.113281 C 28.375 6.210938 28.324219 6.316406 28.320312 6.425781 C 28.15625 6.636719 28.167969 6.886719 28.132812 7.128906 L 28.101562 7.300781 L 28.074219 7.402344 L 28.054688 7.449219 L 28.054688 7.457031 C 27.648438 7.523438 27.246094 7.503906 26.84375 7.472656 C 26.5625 7.34375 26.277344 7.203125 26 7.105469 L 26 7.089844 L 26.007812 7.089844 C 26 7.03125 26.007812 6.976562 26.027344 6.929688 C 26.054688 6.898438 26.070312 6.859375 26.082031 6.8125 C 26.082031 6.761719 26.082031 6.714844 26.097656 6.667969 C 26.0625 6.640625 26.035156 6.601562 26.015625 6.550781 C 26.039062 6.472656 26.046875 6.386719 26.046875 6.292969 C 26.070312 6.203125 26.148438 6.125 26.058594 6.015625 C 26.039062 5.96875 26.019531 5.917969 25.980469 5.878906 C 26.027344 5.753906 26.0625 5.636719 25.875 5.773438 C 25.808594 5.675781 25.726562 5.648438 25.609375 5.75 L 25.558594 5.695312 C 25.535156 5.421875 25.488281 4.699219 25.445312 4.464844 C 25.382812 4.121094 25.1875 3.8125 24.90625 4.15625 C 24.964844 4.3125 24.964844 4.460938 24.769531 4.589844 C 24.761719 4.589844 24.753906 4.589844 24.75 4.589844 C 24.71875 4.589844 24.703125 4.578125 24.6875 4.578125 L 24.679688 4.578125 C 24.679688 4.578125 24.671875 4.578125 24.667969 4.566406 C 24.65625 4.511719 24.613281 4.488281 24.566406 4.472656 C 24.515625 4.441406 24.507812 4.371094 24.488281 4.3125 C 24.515625 4.25 24.539062 4.191406 24.527344 4.128906 C 24.554688 4.121094 24.558594 4.101562 24.554688 4.078125 C 24.578125 4.058594 24.597656 4.035156 24.601562 4 L 24.648438 4 L 24.628906 3.953125 L 24.664062 3.941406 L 24.648438 3.914062 L 24.671875 3.90625 L 24.671875 3.871094 L 24.640625 3.871094 L 24.683594 3.839844 L 24.65625 3.820312 L 24.679688 3.765625 L 24.640625 3.78125 L 24.625 3.675781 L 24.613281 3.738281 L 24.535156 3.644531 L 24.523438 3.664062 L 24.480469 3.613281 L 24.480469 3.652344 L 24.453125 3.652344 L 24.453125 3.628906 L 24.355469 3.648438 L 24.363281 3.617188 L 24.28125 3.644531 L 24.28125 3.625 L 24.191406 3.679688 L 24.203125 3.652344 L 24.089844 3.714844 L 24.082031 3.683594 L 24.03125 3.757812 L 23.992188 3.769531 L 23.976562 3.285156 C 24.007812 3.25 24.019531 3.214844 23.96875 3.191406 L 23.96875 3 L 23.984375 2.941406 C 24.003906 2.917969 24.03125 2.90625 24.03125 2.875 C 24.03125 2.847656 24.019531 2.835938 23.957031 2.824219 L 23.949219 2.765625 C 24.265625 2.734375 24.511719 2.464844 24.511719 2.136719 C 24.511719 1.835938 24.289062 1.59375 24.082031 1.539062 L 24.082031 1.488281 C 24.121094 1.480469 24.148438 1.511719 24.183594 1.523438 C 24.191406 1.515625 24.21875 1.582031 24.222656 1.585938 C 24.222656 1.597656 24.234375 1.542969 24.222656 1.535156 C 24.207031 1.515625 24.183594 1.515625 24.179688 1.476562 C 24.136719 1.46875 24.097656 1.460938 24.054688 1.433594 C 24.054688 1.421875 24.039062 1.394531 24.070312 1.398438 L 24.070312 1.355469 L 24.082031 1.347656 C 24.085938 1.308594 24.070312 1.265625 24.058594 1.226562 C 24.070312 1.210938 24.078125 1.207031 24.085938 1.203125 C 24.105469 1.222656 24.125 1.242188 24.136719 1.203125 C 24.15625 1.230469 24.179688 1.230469 24.207031 1.191406 C 24.226562 1.226562 24.25 1.234375 24.265625 1.175781 C 24.285156 1.195312 24.308594 1.222656 24.328125 1.152344 C 24.367188 1.164062 24.402344 1.167969 24.394531 1.105469 C 24.433594 1.117188 24.441406 1.09375 24.429688 1.046875 C 24.472656 1.039062 24.453125 1.003906 24.445312 0.976562 C 24.460938 0.964844 24.457031 0.945312 24.457031 0.925781 C 24.5 0.9375 24.492188 0.914062 24.492188 0.894531 C 24.523438 0.902344 24.539062 0.894531 24.539062 0.851562 C 24.585938 0.871094 24.574219 0.832031 24.578125 0.808594 C 24.621094 0.808594 24.621094 0.78125 24.621094 0.75 C 24.636719 0.734375 24.652344 0.722656 24.640625 0.695312 C 24.675781 0.671875 24.691406 0.644531 24.667969 0.613281 C 24.683594 0.589844 24.730469 0.582031 24.683594 0.527344 C 24.699219 0.488281 24.773438 0.472656 24.722656 0.410156 C 24.765625 0.371094 24.769531 0.332031 24.75 0.300781 C 24.777344 0.246094 24.855469 0.179688 24.792969 0.15625 C 24.765625 0.148438 24.824219 0.0625 24.839844 0.015625 C 24.839844 0.015625 24.832031 0.015625 24.832031 0.015625 Z M 23.773438 0.40625 C 23.785156 0.40625 23.785156 0.40625 23.789062 0.414062 C 23.800781 0.425781 23.800781 0.457031 23.789062 0.46875 C 23.78125 0.476562 23.765625 0.476562 23.761719 0.46875 C 23.75 0.457031 23.75 0.425781 23.761719 0.414062 C 23.761719 0.414062 23.769531 0.40625 23.773438 0.40625 Z M 23.855469 0.40625 C 23.863281 0.40625 23.867188 0.40625 23.867188 0.414062 C 23.878906 0.425781 23.878906 0.457031 23.867188 0.46875 C 23.859375 0.476562 23.84375 0.476562 23.839844 0.46875 C 23.828125 0.457031 23.828125 0.425781 23.839844 0.414062 C 23.839844 0.414062 23.847656 0.40625 23.855469 0.40625 Z M 23.796875 1.339844 C 23.804688 1.386719 23.796875 1.429688 23.796875 1.476562 C 23.785156 1.464844 23.769531 1.457031 23.761719 1.425781 L 23.761719 1.394531 C 23.773438 1.371094 23.773438 1.34375 23.800781 1.339844 Z M 23.695312 1.460938 C 23.707031 1.460938 23.71875 1.460938 23.730469 1.472656 C 23.738281 1.511719 23.738281 1.535156 23.714844 1.542969 C 23.699219 1.507812 23.675781 1.507812 23.65625 1.53125 C 23.644531 1.558594 23.628906 1.574219 23.609375 1.578125 L 23.609375 1.542969 C 23.632812 1.5 23.660156 1.460938 23.699219 1.460938 Z M 23.941406 1.6875 C 23.988281 1.6875 24.03125 1.703125 24.070312 1.71875 C 24.230469 1.785156 24.347656 1.941406 24.347656 2.128906 C 24.347656 2.359375 24.179688 2.546875 23.957031 2.570312 L 23.957031 2.523438 L 24.082031 2.515625 C 24.046875 2.410156 23.980469 2.339844 23.976562 2.199219 C 24.097656 2.207031 24.195312 2.257812 24.296875 2.308594 L 24.285156 1.941406 C 24.207031 1.992188 24.144531 2.054688 23.972656 2.058594 C 23.960938 1.929688 24.023438 1.824219 24.070312 1.714844 L 23.941406 1.726562 L 23.941406 1.683594 Z M 23.839844 1.6875 C 23.839844 1.703125 23.839844 1.71875 23.839844 1.734375 L 23.683594 1.75 C 23.765625 1.859375 23.8125 1.972656 23.808594 2.082031 C 23.683594 2.074219 23.605469 2.011719 23.511719 1.964844 L 23.519531 2.316406 C 23.609375 2.265625 23.699219 2.214844 23.816406 2.207031 C 23.839844 2.320312 23.773438 2.425781 23.738281 2.53125 L 23.863281 2.523438 C 23.863281 2.539062 23.863281 2.554688 23.863281 2.566406 C 23.632812 2.546875 23.457031 2.359375 23.457031 2.125 C 23.457031 1.898438 23.621094 1.714844 23.835938 1.683594 Z M 23.917969 4.128906 L 23.925781 4.417969 C 23.847656 4.417969 23.78125 4.417969 23.714844 4.410156 C 23.714844 4.410156 23.6875 4.371094 23.679688 4.367188 C 23.664062 4.351562 23.796875 4.128906 23.816406 4.140625 C 23.851562 4.140625 23.882812 4.132812 23.921875 4.125 Z M 24.019531 4.15625 L 24.050781 4.15625 C 24.050781 4.207031 24.050781 4.257812 24.058594 4.332031 C 24.050781 4.359375 24.039062 4.375 24.027344 4.394531 L 24.015625 4.15625 Z M 24.964844 6.042969 C 25.003906 6.085938 24.992188 6.128906 25 6.171875 L 25.054688 6.1875 L 25.15625 6.515625 C 25.097656 6.484375 25.035156 6.460938 24.972656 6.4375 L 24.914062 6.15625 C 24.953125 6.140625 24.960938 6.09375 24.96875 6.042969 Z M 23.730469 6.253906 L 23.730469 6.316406 C 23.707031 6.367188 23.675781 6.390625 23.644531 6.402344 L 23.644531 6.300781 Z M 23.273438 6.5625 C 23.273438 6.5625 23.273438 6.570312 23.273438 6.570312 C 23.03125 6.75 22.835938 6.96875 22.65625 7.210938 L 22.632812 6.882812 C 22.84375 6.777344 23.050781 6.683594 23.273438 6.5625 Z M 19.429688 6.976562 C 19.4375 6.976562 19.457031 7.136719 19.449219 7.125 C 19.441406 7.101562 19.386719 7.105469 19.375 7.136719 C 19.359375 7.125 19.359375 7.097656 19.355469 7.082031 C 19.371094 7.039062 19.402344 7.007812 19.429688 6.976562 Z M 22.007812 7.121094 C 22 7.191406 21.988281 7.261719 21.984375 7.332031 L 21.957031 7.375 C 21.484375 7.402344 21 7.410156 20.554688 7.355469 C 21.054688 7.335938 21.539062 7.261719 22.007812 7.121094 Z M 19.425781 7.128906 L 19.425781 7.1875 C 19.398438 7.1875 19.394531 7.171875 19.390625 7.15625 C 19.398438 7.125 19.410156 7.132812 19.421875 7.128906 Z M 26.015625 7.15625 C 26.269531 7.238281 26.507812 7.355469 26.75 7.464844 C 26.515625 7.421875 26.28125 7.382812 26.046875 7.300781 C 26.046875 7.300781 26.046875 7.292969 26.035156 7.289062 C 26.070312 7.253906 26.054688 7.226562 26.054688 7.199219 L 26.019531 7.207031 L 26.011719 7.160156 Z M 19.378906 7.1875 C 19.394531 7.207031 19.40625 7.214844 19.449219 7.207031 C 19.449219 7.28125 19.457031 7.351562 19.441406 7.367188 C 19.40625 7.359375 19.371094 7.351562 19.347656 7.332031 C 19.390625 7.292969 19.394531 7.238281 19.378906 7.1875 Z M 28.980469 7.246094 C 28.96875 7.292969 28.957031 7.339844 28.917969 7.371094 C 28.917969 7.339844 28.910156 7.304688 28.910156 7.277344 C 28.933594 7.261719 28.957031 7.25 28.976562 7.246094 Z M 20.265625 7.339844 C 20.835938 7.417969 21.347656 7.441406 21.941406 7.410156 L 21.976562 7.417969 L 21.953125 7.519531 C 21.859375 7.613281 21.78125 7.71875 21.722656 7.847656 C 21.636719 7.9375 21.675781 8.007812 21.683594 8.082031 C 21.652344 8.234375 21.65625 8.382812 21.675781 8.535156 L 21.722656 8.695312 C 21.613281 8.644531 21.425781 8.539062 21.328125 8.46875 C 21.328125 8.460938 21.328125 8.460938 21.335938 8.457031 C 21.324219 8.007812 21.394531 7.507812 20.671875 7.515625 C 20.546875 7.503906 20.425781 7.488281 20.347656 7.441406 L 20.265625 7.347656 Z M 26.070312 7.339844 C 26.289062 7.417969 26.53125 7.453125 26.761719 7.492188 C 26.941406 7.558594 27.171875 7.652344 27.300781 7.675781 C 27.335938 7.6875 27.382812 7.675781 27.4375 7.667969 C 27.359375 7.714844 27.296875 7.773438 27.253906 7.835938 C 27.246094 7.84375 27.269531 7.859375 27.269531 7.859375 L 27.238281 7.9375 C 27.183594 8.066406 27.152344 8.195312 27.128906 8.332031 L 26.558594 8.699219 L 26.503906 8.710938 C 26.503906 8.582031 26.539062 8.445312 26.484375 8.339844 C 26.484375 8.074219 26.496094 7.808594 26.472656 7.550781 L 26.242188 7.542969 L 26.226562 7.632812 C 26.171875 7.507812 26.121094 7.425781 26.066406 7.335938 Z M 28.046875 7.472656 L 28.046875 7.484375 C 28.007812 7.5 27.957031 7.515625 27.90625 7.527344 C 27.847656 7.527344 27.769531 7.539062 27.691406 7.5625 C 27.648438 7.578125 27.601562 7.59375 27.554688 7.613281 C 27.472656 7.640625 27.390625 7.664062 27.316406 7.640625 L 26.890625 7.496094 L 26.878906 7.496094 C 27.265625 7.523438 27.65625 7.550781 28.050781 7.476562 Z M 28.03125 7.507812 L 28.011719 7.550781 C 27.996094 7.542969 27.980469 7.535156 27.960938 7.53125 C 27.988281 7.523438 28.011719 7.515625 28.03125 7.507812 Z M 27.113281 8.445312 C 27.101562 8.550781 27.09375 8.65625 27.085938 8.765625 L 26.589844 8.773438 Z M 21.3125 8.542969 C 21.46875 8.648438 21.605469 8.707031 21.742188 8.765625 L 21.742188 8.773438 L 21.238281 8.765625 C 21.265625 8.691406 21.289062 8.617188 21.308594 8.542969 Z M 26.976562 8.84375 L 26.992188 10.714844 L 26.519531 10.714844 L 26.511719 10.164062 L 26.511719 9.390625 L 26.566406 9.390625 L 26.582031 9.265625 L 26.679688 9.265625 C 26.707031 9.210938 26.703125 9.152344 26.679688 9.097656 L 26.582031 9.097656 L 26.5625 8.960938 L 26.511719 8.960938 L 26.511719 8.855469 L 26.96875 8.84375 Z M 21.207031 8.855469 L 21.382812 8.863281 L 21.367188 10.722656 L 21.011719 10.722656 C 21.011719 10.570312 20.980469 10.324219 21.019531 10.304688 C 21.101562 10.28125 21.117188 10.226562 21.082031 10.144531 C 21.167969 10.035156 21.238281 9.921875 21.148438 9.769531 C 21.140625 9.613281 21.132812 9.449219 21.121094 9.277344 L 21.15625 9.300781 C 21.171875 9.234375 21.148438 9.175781 21.117188 9.117188 C 21.144531 9.03125 21.175781 8.945312 21.207031 8.859375 Z M 21.429688 8.863281 L 21.769531 8.875 C 21.804688 9.109375 21.945312 9.316406 21.871094 9.585938 C 21.96875 9.804688 22.003906 10.035156 21.988281 10.277344 C 22.023438 10.398438 22.039062 10.507812 21.972656 10.582031 C 21.980469 10.628906 21.992188 10.679688 21.980469 10.722656 L 21.398438 10.722656 L 21.433594 8.867188 Z M 20.730469 8.898438 L 20.730469 9.003906 C 20.679688 9.066406 20.667969 9.113281 20.65625 9.15625 L 20.632812 9.113281 Z M 22.417969 9.382812 L 22.480469 9.382812 C 22.542969 9.570312 22.449219 9.710938 22.539062 9.878906 C 22.515625 9.964844 22.539062 10.054688 22.570312 10.140625 C 22.601562 10.242188 22.621094 10.347656 22.726562 10.371094 L 22.726562 10.722656 L 22.378906 10.722656 L 22.328125 10.511719 L 22.347656 10.160156 C 22.371094 10.042969 22.367188 9.957031 22.367188 9.871094 C 22.421875 9.773438 22.4375 9.65625 22.378906 9.511719 C 22.363281 9.460938 22.367188 9.417969 22.417969 9.382812 Z M 22.835938 9.410156 C 22.898438 9.417969 22.957031 9.398438 23.019531 9.4375 L 23.039062 9.507812 C 22.984375 9.644531 23.03125 9.792969 23.078125 9.941406 L 23.085938 10.335938 C 23.058594 10.429688 23.027344 10.523438 23.078125 10.636719 C 23.066406 10.679688 23.039062 10.691406 23.019531 10.714844 L 23.03125 10.722656 L 22.796875 10.722656 L 22.796875 10.375 C 22.855469 10.347656 22.886719 10.296875 22.914062 10.25 C 22.9375 10.148438 22.941406 10.058594 22.929688 9.96875 C 22.886719 9.785156 22.824219 9.597656 22.832031 9.410156 Z M 26.109375 9.421875 L 26.1875 9.421875 L 26.230469 9.464844 L 26.246094 9.53125 L 26.289062 10.71875 L 26.117188 10.71875 L 26.117188 10.558594 C 26.078125 10.5625 26.042969 10.550781 26.046875 10.523438 L 26.070312 10.140625 C 26.132812 10.027344 26.0625 9.980469 26.046875 9.910156 C 26.070312 9.851562 26.074219 9.777344 26.066406 9.683594 C 26.132812 9.632812 26.101562 9.511719 26.109375 9.417969 Z M 25.484375 9.441406 C 25.5 9.558594 25.511719 9.683594 25.570312 9.792969 L 25.601562 9.953125 C 25.570312 10.128906 25.628906 10.164062 25.648438 10.261719 L 25.601562 10.386719 C 25.671875 10.46875 25.710938 10.546875 25.863281 10.449219 L 25.855469 10.515625 C 25.878906 10.542969 25.882812 10.574219 25.828125 10.601562 L 25.835938 10.722656 L 25.253906 10.722656 L 25.253906 10.675781 C 25.289062 10.566406 25.296875 10.46875 25.265625 10.382812 C 25.253906 10.167969 25.28125 9.964844 25.359375 9.773438 C 25.382812 9.679688 25.3125 9.582031 25.378906 9.457031 L 25.484375 9.4375 Z M 23.28125 9.441406 L 24.171875 9.539062 L 24.183594 10.585938 L 24.109375 10.714844 L 23.253906 10.714844 L 23.265625 10.714844 C 23.234375 10.683594 23.203125 10.652344 23.238281 10.566406 L 23.222656 10.339844 L 23.257812 9.917969 C 23.308594 9.761719 23.347656 9.605469 23.289062 9.4375 Z M 24.988281 9.488281 L 25 9.523438 L 24.929688 9.542969 C 24.859375 9.746094 24.871094 9.886719 25.117188 9.851562 L 25.105469 10.375 C 25.070312 10.453125 25.0625 10.542969 25.105469 10.644531 L 25.078125 10.71875 L 24.535156 10.71875 L 24.460938 10.542969 L 24.445312 9.664062 L 24.492188 9.628906 L 24.492188 9.542969 Z M 20.742188 9.703125 C 20.769531 9.703125 20.769531 9.742188 20.769531 9.773438 C 20.746094 9.761719 20.738281 9.734375 20.742188 9.703125 Z M 20.464844 9.71875 L 20.488281 9.875 C 20.558594 10.042969 20.597656 10.230469 20.5 10.53125 L 20.5 10.644531 C 20.476562 10.671875 20.4375 10.6875 20.398438 10.707031 L 20.382812 10.5625 L 20.429688 10.152344 L 20.429688 9.796875 L 20.472656 9.71875 Z M 20.925781 10.40625 L 20.941406 10.71875 L 20.78125 10.71875 L 20.78125 10.492188 C 20.839844 10.46875 20.890625 10.453125 20.925781 10.40625 Z M 20.695312 10.621094 L 20.707031 10.71875 L 20.648438 10.71875 C 20.65625 10.679688 20.65625 10.632812 20.695312 10.621094 Z M 20.695312 10.621094 "/>
</g>
</svg>
